<?xml version="1.0" encoding="utf-8"?>
<!-- Generator: Adobe Illustrator 28.1.0, SVG Export Plug-In . SVG Version: 6.00 Build 0)  -->
<svg width="95" height="95" viewBox="0 0 2080 2080" xmlns="http://www.w3.org/2000/svg" xmlns:xlink="http://www.w3.org/1999/xlink" xml:space="preserve">
<style type="text/css">
    .st0{fill:#2F4589;}
    .st1{fill:#FFFFFF;}
</style>
<g>
    <path class="st0" d="M-3656.25,1105.97c0,0,112.95-30.46,112.95-172.6c0,0,5.5-111.87-105.08-168.03
        c-30.82-15.65-65-23.52-99.56-24.13l-254.78-4.55v592.67h137.06v-192.9h65.99l111.68,192.9h166.25L-3656.25,1105.97z
         M-3753.97,1023.11c-59.65,0-110.41,0-110.41,0v-157h104.67c13.86,0,27.6,3.41,39.49,10.54c16.95,10.16,34.79,29.89,34.79,67.96
        C-3685.44,944.6-3682.9,1023.11-3753.97,1023.11z"/>
    <polygon class="st0" points="-3455.73,736.65 -3455.73,1329.33 -3316.13,1329.33 -3316.13,1116.12 -3095.3,1116.12 -3095.3,986.67 
        -3316.13,986.67 -3316.13,866.1 -3033.12,866.1 -3033.12,736.65 	"/>
    <path class="st0" d="M-4097.9,736.65h-140.87v366.77c0,0,0,101.53-79.95,107.87c0,0-55.84,7.61-88.84-31.73l-82.49,110.41
        c0,0,45.75,56.22,184.05,53.25c144.65-3.12,208.11-144.62,208.11-242.34V736.65z"/>
</g>
<g>
    <path d="M1145.34,1105.97c0,0,112.95-30.46,112.95-172.6c0,0,5.5-111.87-105.08-168.03c-30.82-15.65-65-23.52-99.56-24.13
        l-254.78-4.55v592.67h137.06v-192.9h65.99l111.68,192.9h166.25L1145.34,1105.97z M1047.61,1023.11c-59.65,0-110.41,0-110.41,0v-157
        h104.67c13.86,0,27.6,3.41,39.49,10.54c16.95,10.16,34.79,29.89,34.79,67.96C1116.15,944.6,1118.68,1023.11,1047.61,1023.11z"/>
    <polygon points="1345.86,736.65 1345.86,1329.33 1485.46,1329.33 1485.46,1116.12 1706.28,1116.12 1706.28,986.67 1485.46,986.67 
        1485.46,866.1 1768.47,866.1 1768.47,736.65 	"/>
    <path d="M703.69,736.65H562.81v366.77c0,0,0,101.53-79.95,107.87c0,0-55.84,7.61-88.84-31.73l-82.49,110.41
        c0,0,45.75,56.22,184.05,53.25c144.65-3.12,208.11-144.62,208.11-242.34V736.65z"/>
</g>
<g>
    <path class="st1" d="M-1253.53,1105.97c0,0,112.95-30.46,112.95-172.6c0,0,5.5-111.87-105.08-168.03
        c-30.82-15.65-65-23.52-99.56-24.13l-254.78-4.55v592.67h137.06v-192.9h65.99l111.68,192.9H-1119L-1253.53,1105.97z
         M-1351.25,1023.11c-59.65,0-110.41,0-110.41,0v-157h104.67c13.86,0,27.6,3.41,39.49,10.54c16.95,10.16,34.79,29.89,34.79,67.96
        C-1282.72,944.6-1280.18,1023.11-1351.25,1023.11z"/>
    <polygon class="st1" points="-1053.01,736.65 -1053.01,1329.33 -913.41,1329.33 -913.41,1116.12 -692.58,1116.12 -692.58,986.67 
        -913.41,986.67 -913.41,866.1 -630.4,866.1 -630.4,736.65 	"/>
    <path class="st1" d="M-1695.18,736.65h-140.87v366.77c0,0,0,101.53-79.95,107.87c0,0-55.84,7.61-88.84-31.73l-82.49,110.41
        c0,0,45.75,56.22,184.05,53.25c144.65-3.12,208.11-144.62,208.11-242.34V736.65z"/>
</g>
</svg>
